<svg id="visual" viewBox="0 0 900 600" width="900" height="600" xmlns="http://www.w3.org/2000/svg" xmlns:xlink="http://www.w3.org/1999/xlink" version="1.1"><rect x="0" y="0" width="900" height="600" fill="#f5f5f5"></rect><path d="M0 309L90 254L180 284L270 217L360 269L450 296L540 220L630 323L720 322L810 204L900 298L900 0L810 0L720 0L630 0L540 0L450 0L360 0L270 0L180 0L90 0L0 0Z" fill="#b4fdc0"></path><path d="M0 231L90 222L180 257L270 183L360 211L450 190L540 246L630 217L720 295L810 278L900 301L900 0L810 0L720 0L630 0L540 0L450 0L360 0L270 0L180 0L90 0L0 0Z" fill="#b4fdc0"></path><path d="M0 243L90 231L180 251L270 204L360 219L450 248L540 224L630 181L720 264L810 242L900 190L900 0L810 0L720 0L630 0L540 0L450 0L360 0L270 0L180 0L90 0L0 0Z" fill="#b4fdc0"></path><path d="M0 143L90 214L180 167L270 205L360 197L450 188L540 198L630 127L720 217L810 159L900 187L900 0L810 0L720 0L630 0L540 0L450 0L360 0L270 0L180 0L90 0L0 0Z" fill="#b4fdc0"></path><path d="M0 136L90 144L180 100L270 157L360 118L450 106L540 146L630 147L720 113L810 177L900 107L900 0L810 0L720 0L630 0L540 0L450 0L360 0L270 0L180 0L90 0L0 0Z" fill="#b4fdc0"></path><path d="M0 89L90 139L180 147L270 143L360 144L450 124L540 106L630 90L720 135L810 86L900 100L900 0L810 0L720 0L630 0L540 0L450 0L360 0L270 0L180 0L90 0L0 0Z" fill="#b4fdc0"></path><path d="M0 72L90 73L180 63L270 52L360 48L450 90L540 88L630 97L720 93L810 58L900 72L900 0L810 0L720 0L630 0L540 0L450 0L360 0L270 0L180 0L90 0L0 0Z" fill="#b4fdc0"></path><path d="M0 47L90 55L180 44L270 64L360 49L450 31L540 51L630 36L720 31L810 60L900 64L900 0L810 0L720 0L630 0L540 0L450 0L360 0L270 0L180 0L90 0L0 0Z" fill="#b4fdc0"></path></svg>