<svg id="visual" viewBox="0 0 1500 900" width="1500" height="900" xmlns="http://www.w3.org/2000/svg" xmlns:xlink="http://www.w3.org/1999/xlink" version="1.1"><rect x="0" y="0" width="1500" height="900" fill="#f5f5f5"></rect><defs><linearGradient id="grad1_0" x1="40%" y1="100%" x2="100%" y2="0%"><stop offset="16.666666666666664%" stop-color="#f5f5f5" stop-opacity="1"></stop><stop offset="83.33333333333334%" stop-color="#f5f5f5" stop-opacity="1"></stop></linearGradient></defs><defs><linearGradient id="grad2_0" x1="0%" y1="100%" x2="60%" y2="0%"><stop offset="16.666666666666664%" stop-color="#f5f5f5" stop-opacity="1"></stop><stop offset="83.33333333333334%" stop-color="#f5f5f5" stop-opacity="1"></stop></linearGradient></defs><g transform="translate(1500, 900)"><path d="M-437.3 0C-429.9 -83.4 -422.4 -166.8 -378.7 -218.7C-335.1 -270.6 -255.2 -291 -186 -322.2C-116.8 -353.4 -58.4 -395.3 0 -437.3L0 0Z" fill="#b4fdc0"></path></g><g transform="translate(0, 0)"><path d="M437.3 0C404.6 63.8 371.8 127.5 339.5 196C307.1 264.5 275.2 337.7 218.7 378.7C162.1 419.7 81.1 428.5 0 437.3L0 0Z" fill="#b4fdc0"></path></g></svg>