<svg id="visual" viewBox="0 0 960 540" width="960" height="540" xmlns="http://www.w3.org/2000/svg" xmlns:xlink="http://www.w3.org/1999/xlink" version="1.1"><rect width="960" height="540" fill="#F5F5F5"></rect><g><g transform="translate(425 366)"><path d="M82.9 -24.5C95.1 10.6 84.1 55.6 54.6 77.6C25.1 99.6 -22.9 98.6 -52.6 76.2C-82.2 53.7 -93.5 9.8 -81.7 -24.7C-69.9 -59.3 -34.9 -84.5 0.2 -84.6C35.4 -84.6 70.7 -59.6 82.9 -24.5Z" stroke="#e6007e" fill="none" stroke-width="19"></path></g><g transform="translate(726 223)"><path d="M75.1 -24.3C85.4 7.5 73.8 46.6 47.4 65.9C21 85.3 -20.2 84.9 -44.8 66C-69.4 47.2 -77.4 9.7 -67.1 -22C-56.9 -53.6 -28.4 -79.6 2 -80.2C32.3 -80.8 64.7 -56.2 75.1 -24.3Z" stroke="#e6007e" fill="none" stroke-width="19"></path></g><g transform="translate(145 170)"><path d="M86.8 -26.8C99.8 11.8 88.9 59.5 59.2 80.9C29.6 102.3 -18.7 97.2 -51.9 72.8C-85.2 48.3 -103.4 4.4 -92.2 -31.7C-81 -67.7 -40.5 -96 -1.8 -95.4C36.9 -94.8 73.8 -65.4 86.8 -26.8Z" stroke="#e6007e" fill="none" stroke-width="19"></path></g></g></svg>