<svg id="visual" viewBox="0 0 960 540" width="960" height="540" xmlns="http://www.w3.org/2000/svg" xmlns:xlink="http://www.w3.org/1999/xlink" version="1.1"><rect x="0" y="0" width="960" height="540" fill="#f5f5f5"></rect><path d="M0 310L42 310L42 198L83 198L83 104L125 104L125 416L167 416L167 414L209 414L209 451L250 451L250 190L292 190L292 162L334 162L334 378L376 378L376 120L417 120L417 387L459 387L459 113L501 113L501 217L543 217L543 131L584 131L584 172L626 172L626 86L668 86L668 218L710 218L710 210L751 210L751 189L793 189L793 219L835 219L835 345L877 345L877 336L918 336L918 283L960 283L960 128L960 0L960 0L918 0L918 0L877 0L877 0L835 0L835 0L793 0L793 0L751 0L751 0L710 0L710 0L668 0L668 0L626 0L626 0L584 0L584 0L543 0L543 0L501 0L501 0L459 0L459 0L417 0L417 0L376 0L376 0L334 0L334 0L292 0L292 0L250 0L250 0L209 0L209 0L167 0L167 0L125 0L125 0L83 0L83 0L42 0L42 0L0 0Z" fill="#b4fdc0"></path><path d="M0 239L42 239L42 248L83 248L83 295L125 295L125 88L167 88L167 109L209 109L209 224L250 224L250 167L292 167L292 135L334 135L334 95L376 95L376 97L417 97L417 179L459 179L459 126L501 126L501 75L543 75L543 91L584 91L584 106L626 106L626 165L668 165L668 215L710 215L710 288L751 288L751 331L793 331L793 83L835 83L835 274L877 274L877 330L918 330L918 73L960 73L960 82L960 0L960 0L918 0L918 0L877 0L877 0L835 0L835 0L793 0L793 0L751 0L751 0L710 0L710 0L668 0L668 0L626 0L626 0L584 0L584 0L543 0L543 0L501 0L501 0L459 0L459 0L417 0L417 0L376 0L376 0L334 0L334 0L292 0L292 0L250 0L250 0L209 0L209 0L167 0L167 0L125 0L125 0L83 0L83 0L42 0L42 0L0 0Z" fill="#b4fdc0"></path><path d="M0 296L42 296L42 65L83 65L83 255L125 255L125 166L167 166L167 111L209 111L209 146L250 146L250 81L292 81L292 326L334 326L334 221L376 221L376 151L417 151L417 243L459 243L459 248L501 248L501 203L543 203L543 123L584 123L584 239L626 239L626 88L668 88L668 63L710 63L710 283L751 283L751 327L793 327L793 294L835 294L835 286L877 286L877 317L918 317L918 151L960 151L960 91L960 0L960 0L918 0L918 0L877 0L877 0L835 0L835 0L793 0L793 0L751 0L751 0L710 0L710 0L668 0L668 0L626 0L626 0L584 0L584 0L543 0L543 0L501 0L501 0L459 0L459 0L417 0L417 0L376 0L376 0L334 0L334 0L292 0L292 0L250 0L250 0L209 0L209 0L167 0L167 0L125 0L125 0L83 0L83 0L42 0L42 0L0 0Z" fill="#b4fdc0"></path><path d="M0 253L42 253L42 130L83 130L83 200L125 200L125 270L167 270L167 270L209 270L209 92L250 92L250 213L292 213L292 133L334 133L334 214L376 214L376 241L417 241L417 259L459 259L459 143L501 143L501 195L543 195L543 80L584 80L584 124L626 124L626 179L668 179L668 94L710 94L710 184L751 184L751 133L793 133L793 101L835 101L835 102L877 102L877 235L918 235L918 117L960 117L960 191L960 0L960 0L918 0L918 0L877 0L877 0L835 0L835 0L793 0L793 0L751 0L751 0L710 0L710 0L668 0L668 0L626 0L626 0L584 0L584 0L543 0L543 0L501 0L501 0L459 0L459 0L417 0L417 0L376 0L376 0L334 0L334 0L292 0L292 0L250 0L250 0L209 0L209 0L167 0L167 0L125 0L125 0L83 0L83 0L42 0L42 0L0 0Z" fill="#b4fdc0"></path><path d="M0 149L42 149L42 192L83 192L83 122L125 122L125 102L167 102L167 220L209 220L209 57L250 57L250 190L292 190L292 177L334 177L334 165L376 165L376 103L417 103L417 48L459 48L459 69L501 69L501 176L543 176L543 127L584 127L584 98L626 98L626 186L668 186L668 42L710 42L710 202L751 202L751 99L793 99L793 94L835 94L835 149L877 149L877 176L918 176L918 92L960 92L960 130L960 0L960 0L918 0L918 0L877 0L877 0L835 0L835 0L793 0L793 0L751 0L751 0L710 0L710 0L668 0L668 0L626 0L626 0L584 0L584 0L543 0L543 0L501 0L501 0L459 0L459 0L417 0L417 0L376 0L376 0L334 0L334 0L292 0L292 0L250 0L250 0L209 0L209 0L167 0L167 0L125 0L125 0L83 0L83 0L42 0L42 0L0 0Z" fill="#b4fdc0"></path><path d="M0 124L42 124L42 38L83 38L83 153L125 153L125 78L167 78L167 98L209 98L209 136L250 136L250 82L292 82L292 117L334 117L334 78L376 78L376 68L417 68L417 133L459 133L459 72L501 72L501 81L543 81L543 81L584 81L584 62L626 62L626 73L668 73L668 136L710 136L710 62L751 62L751 133L793 133L793 114L835 114L835 66L877 66L877 82L918 82L918 160L960 160L960 32L960 0L960 0L918 0L918 0L877 0L877 0L835 0L835 0L793 0L793 0L751 0L751 0L710 0L710 0L668 0L668 0L626 0L626 0L584 0L584 0L543 0L543 0L501 0L501 0L459 0L459 0L417 0L417 0L376 0L376 0L334 0L334 0L292 0L292 0L250 0L250 0L209 0L209 0L167 0L167 0L125 0L125 0L83 0L83 0L42 0L42 0L0 0Z" fill="#b4fdc0"></path><path d="M0 32L42 32L42 39L83 39L83 87L125 87L125 68L167 68L167 22L209 22L209 108L250 108L250 65L292 65L292 112L334 112L334 38L376 38L376 94L417 94L417 40L459 40L459 53L501 53L501 110L543 110L543 35L584 35L584 36L626 36L626 113L668 113L668 61L710 61L710 96L751 96L751 71L793 71L793 53L835 53L835 63L877 63L877 100L918 100L918 84L960 84L960 80L960 0L960 0L918 0L918 0L877 0L877 0L835 0L835 0L793 0L793 0L751 0L751 0L710 0L710 0L668 0L668 0L626 0L626 0L584 0L584 0L543 0L543 0L501 0L501 0L459 0L459 0L417 0L417 0L376 0L376 0L334 0L334 0L292 0L292 0L250 0L250 0L209 0L209 0L167 0L167 0L125 0L125 0L83 0L83 0L42 0L42 0L0 0Z" fill="#b4fdc0"></path></svg>