<svg id="visual" viewBox="0 0 900 1000" width="900" height="1000" xmlns="http://www.w3.org/2000/svg" xmlns:xlink="http://www.w3.org/1999/xlink" version="1.1"><rect width="900" height="1000" fill="#F5F5F5"></rect><g><g transform="translate(138 602)"><path d="M103.5 -103.3C129.7 -77.3 143.4 -38.7 140 -3.4C136.5 31.8 116 63.6 89.8 95.6C63.6 127.6 31.8 159.7 -3.6 163.3C-39 166.9 -78 142 -101.3 110C-124.6 78 -132.3 39 -135.4 -3.1C-138.6 -45.3 -137.2 -90.5 -113.9 -116.5C-90.5 -142.5 -45.3 -149.1 -3.3 -145.8C38.7 -142.5 77.3 -129.2 103.5 -103.3Z" fill="#e6007e"></path></g><g transform="translate(736 510)"><path d="M83.8 -78.5C108.5 -59 128.5 -29.5 132.7 4.3C137 38 125.5 76 100.8 100.3C76 124.5 38 134.9 4.7 130.2C-28.5 125.4 -57.1 105.5 -80 81.3C-102.9 57.1 -120.2 28.5 -125.3 -5.2C-130.5 -38.9 -123.6 -77.8 -100.7 -97.3C-77.8 -116.9 -38.9 -117 -4.7 -112.3C29.5 -107.6 59 -98.1 83.8 -78.5Z" fill="#e6007e"></path></g><g transform="translate(229 991)"><path d="M89.3 -88.2C110.8 -67.8 119.9 -33.9 118.9 -1C117.9 31.9 106.8 63.8 85.3 89.9C63.8 116.1 31.9 136.4 -4.6 141C-41 145.5 -82.1 134.3 -104.1 108.2C-126 82.1 -129 41 -127.5 1.5C-126 -38.1 -120.2 -76.2 -98.2 -96.6C-76.2 -116.9 -38.1 -119.6 -2.1 -117.5C33.9 -115.4 67.8 -108.6 89.3 -88.2Z" fill="#e6007e"></path></g><g transform="translate(364 110)"><path d="M69.1 -74.4C86.4 -51.8 95.1 -25.9 101.2 6C107.2 37.9 110.5 75.9 93.2 93.1C75.9 110.3 37.9 106.8 3.8 103.1C-30.4 99.3 -60.8 95.2 -86 78C-111.2 60.8 -131.2 30.4 -131 0.2C-130.7 -29.9 -110.3 -59.9 -85.1 -82.5C-59.9 -105.1 -29.9 -120.4 -2 -118.3C25.9 -116.3 51.8 -97 69.1 -74.4Z" fill="#e6007e"></path></g><g transform="translate(721 944)"><path d="M52.1 -51.9C67.3 -37 79.1 -18.5 78.3 -0.8C77.5 16.8 64 33.6 48.8 45.2C33.6 56.7 16.8 63 -1.2 64.2C-19.2 65.4 -38.4 61.5 -54.4 50C-70.3 38.4 -82.9 19.2 -81.6 1.3C-80.3 -16.6 -65 -33.1 -49.1 -48.1C-33.1 -63.1 -16.6 -76.5 1 -77.4C18.5 -78.4 37 -66.9 52.1 -51.9Z" fill="#e6007e"></path></g><g transform="translate(749 2)"><path d="M90.6 -86.7C113.6 -67.6 125.9 -33.8 125.2 -0.7C124.6 32.5 111 64.9 88 92C64.9 119.1 32.5 140.7 1 139.7C-30.4 138.6 -60.9 115 -87.1 87.9C-113.3 60.9 -135.3 30.4 -132.9 2.3C-130.6 -25.7 -103.9 -51.5 -77.7 -70.7C-51.5 -89.8 -25.7 -102.4 4 -106.4C33.8 -110.4 67.6 -105.9 90.6 -86.7Z" fill="#e6007e"></path></g></g></svg>