<svg id="visual" viewBox="0 0 900 50" width="900" height="50" xmlns="http://www.w3.org/2000/svg" xmlns:xlink="http://www.w3.org/1999/xlink" version="1.1"><rect width="900" height="50" fill="#F5F5F5"></rect><g><g transform="translate(320 43)"><path d="M27.4 -9.8C30.9 1.9 26 15.4 16 22.8C6.1 30.2 -8.9 31.5 -18.1 24.9C-27.3 18.2 -30.7 3.5 -26.7 -8.7C-22.7 -21 -11.4 -30.9 0.3 -31C12 -31.1 23.9 -21.4 27.4 -9.8Z" fill="none" stroke="#e6007e" stroke-width="20"></path></g><g transform="translate(704 42)"><path d="M17.2 -6.2C19.6 1.5 16.7 10.3 10.3 15.2C3.8 20.2 -6.2 21.3 -12.7 16.7C-19.1 12.2 -22 2 -19.3 -6.2C-16.6 -14.4 -8.3 -20.7 -0.4 -20.6C7.5 -20.4 14.9 -13.9 17.2 -6.2Z" fill="none" stroke="#e6007e" stroke-width="20"></path></g><g transform="translate(515 46)"><path d="M14.6 -5C16.6 1.2 14.1 8.7 9.3 12C4.4 15.4 -2.9 14.7 -8.2 11C-13.5 7.2 -16.7 0.4 -15 -5.5C-13.3 -11.5 -6.7 -16.4 -0.2 -16.4C6.3 -16.3 12.7 -11.3 14.6 -5Z" fill="none" stroke="#e6007e" stroke-width="20"></path></g><g transform="translate(90 10)"><path d="M14.3 -4.6C15.9 0.5 12.9 7.1 8 10.7C3 14.2 -4.1 14.7 -9 11.4C-14 8 -16.9 0.8 -15.1 -4.5C-13.2 -9.9 -6.6 -13.3 -0.2 -13.3C6.3 -13.2 12.6 -9.7 14.3 -4.6Z" stroke="#e6007e" fill="none" stroke-width="20"></path></g><g transform="translate(597 10)"><path d="M15.3 -5.4C17 0 13.4 6.7 8.3 10.1C3.3 13.4 -3.2 13.4 -7.8 10.2C-12.3 7.1 -14.9 0.7 -13.2 -4.8C-11.6 -10.2 -5.8 -14.8 0.5 -15C6.8 -15.2 13.7 -10.9 15.3 -5.4Z" stroke="#e6007e" fill="none" stroke-width="20"></path></g><g transform="translate(899 17)"><path d="M22.4 -7.6C25.8 3.1 23.1 15.6 15 21.7C6.9 27.8 -6.5 27.6 -15.3 21.1C-24.2 14.7 -28.5 2 -25.1 -8.6C-21.8 -19.2 -10.9 -27.7 -0.7 -27.5C9.5 -27.2 19.1 -18.3 22.4 -7.6Z" stroke="#e6007e" fill="none" stroke-width="20"></path></g></g></svg>