<svg id="visual" viewBox="0 0 900 1000" width="900" height="1000" xmlns="http://www.w3.org/2000/svg" xmlns:xlink="http://www.w3.org/1999/xlink" version="1.1"><rect x="0" y="0" width="900" height="1000" fill="#f5f5f5"></rect><path d="M0 318L21.5 331.8C43 345.7 86 373.3 128.8 383C171.7 392.7 214.3 384.3 257.2 364.3C300 344.3 343 312.7 385.8 293C428.7 273.3 471.3 265.7 514.2 281.8C557 298 600 338 642.8 361.2C685.7 384.3 728.3 390.7 771.2 395.5C814 400.3 857 403.7 878.5 405.3L900 407L900 0L878.5 0C857 0 814 0 771.2 0C728.3 0 685.7 0 642.8 0C600 0 557 0 514.2 0C471.3 0 428.7 0 385.8 0C343 0 300 0 257.2 0C214.3 0 171.7 0 128.8 0C86 0 43 0 21.5 0L0 0Z" fill="#e6007e"></path><path d="M0 337L21.5 317.7C43 298.3 86 259.7 128.8 246.8C171.7 234 214.3 247 257.2 252.7C300 258.3 343 256.7 385.8 246.8C428.7 237 471.3 219 514.2 217.5C557 216 600 231 642.8 240.3C685.7 249.7 728.3 253.3 771.2 269C814 284.7 857 312.3 878.5 326.2L900 340L900 0L878.5 0C857 0 814 0 771.2 0C728.3 0 685.7 0 642.8 0C600 0 557 0 514.2 0C471.3 0 428.7 0 385.8 0C343 0 300 0 257.2 0C214.3 0 171.7 0 128.8 0C86 0 43 0 21.5 0L0 0Z" fill="#de0f78"></path><path d="M0 247L21.5 235.7C43 224.3 86 201.7 128.8 189.2C171.7 176.7 214.3 174.3 257.2 186.5C300 198.7 343 225.3 385.8 227C428.7 228.7 471.3 205.3 514.2 191.7C557 178 600 174 642.8 173.5C685.7 173 728.3 176 771.2 180.2C814 184.3 857 189.7 878.5 192.3L900 195L900 0L878.5 0C857 0 814 0 771.2 0C728.3 0 685.7 0 642.8 0C600 0 557 0 514.2 0C471.3 0 428.7 0 385.8 0C343 0 300 0 257.2 0C214.3 0 171.7 0 128.8 0C86 0 43 0 21.5 0L0 0Z" fill="#d61873"></path><path d="M0 183L21.5 172.8C43 162.7 86 142.3 128.8 139.5C171.7 136.7 214.3 151.3 257.2 151.8C300 152.3 343 138.7 385.8 134.7C428.7 130.7 471.3 136.3 514.2 137.3C557 138.3 600 134.7 642.8 132.5C685.7 130.3 728.3 129.7 771.2 130.8C814 132 857 135 878.5 136.5L900 138L900 0L878.5 0C857 0 814 0 771.2 0C728.3 0 685.7 0 642.8 0C600 0 557 0 514.2 0C471.3 0 428.7 0 385.8 0C343 0 300 0 257.2 0C214.3 0 171.7 0 128.8 0C86 0 43 0 21.5 0L0 0Z" fill="#ce1e6d"></path><path d="M0 86L21.5 83.3C43 80.7 86 75.3 128.8 71.8C171.7 68.3 214.3 66.7 257.2 63.7C300 60.7 343 56.3 385.8 52.7C428.7 49 471.3 46 514.2 56.7C557 67.3 600 91.7 642.8 102.7C685.7 113.7 728.3 111.3 771.2 110.3C814 109.3 857 109.7 878.5 109.8L900 110L900 0L878.5 0C857 0 814 0 771.2 0C728.3 0 685.7 0 642.8 0C600 0 557 0 514.2 0C471.3 0 428.7 0 385.8 0C343 0 300 0 257.2 0C214.3 0 171.7 0 128.8 0C86 0 43 0 21.5 0L0 0Z" fill="#c62368"></path></svg>