<svg id="visual" viewBox="0 0 900 50" width="900" height="50" xmlns="http://www.w3.org/2000/svg" xmlns:xlink="http://www.w3.org/1999/xlink" version="1.1"><rect x="0" y="0" width="900" height="50" fill="#f5f5f5"></rect><path d="M0 11L9.3 13.8C18.7 16.7 37.3 22.3 56.2 24.5C75 26.7 94 25.3 112.8 23.2C131.7 21 150.3 18 169 19.3C187.7 20.7 206.3 26.3 225 27.8C243.7 29.3 262.3 26.7 281.2 23.3C300 20 319 16 337.8 16.2C356.7 16.3 375.3 20.7 394 23C412.7 25.3 431.3 25.7 450 27.3C468.7 29 487.3 32 506.2 30C525 28 544 21 562.8 19.5C581.7 18 600.3 22 619 25.7C637.7 29.3 656.3 32.7 675 29.5C693.7 26.3 712.3 16.7 731.2 12.2C750 7.7 769 8.3 787.8 9.5C806.7 10.7 825.3 12.3 844 13.5C862.7 14.7 881.3 15.3 890.7 15.7L900 16L900 0L890.7 0C881.3 0 862.7 0 844 0C825.3 0 806.7 0 787.8 0C769 0 750 0 731.2 0C712.3 0 693.7 0 675 0C656.3 0 637.7 0 619 0C600.3 0 581.7 0 562.8 0C544 0 525 0 506.2 0C487.3 0 468.7 0 450 0C431.3 0 412.7 0 394 0C375.3 0 356.7 0 337.8 0C319 0 300 0 281.2 0C262.3 0 243.7 0 225 0C206.3 0 187.7 0 169 0C150.3 0 131.7 0 112.8 0C94 0 75 0 56.2 0C37.3 0 18.7 0 9.3 0L0 0Z" fill="#b4fdc0" stroke-linecap="round" stroke-linejoin="miter"></path></svg>