<svg id="visual" viewBox="0 0 900 50" width="900" height="50" xmlns="http://www.w3.org/2000/svg" xmlns:xlink="http://www.w3.org/1999/xlink" version="1.1"><path d="M0 8L82 8L164 7L245 15L327 6L409 11L491 7L573 8L655 8L736 7L818 6L900 13L900 0L818 0L736 0L655 0L573 0L491 0L409 0L327 0L245 0L164 0L82 0L0 0Z" fill="#b4fdc0"></path><path d="M0 18L82 12L164 17L245 19L327 15L409 21L491 12L573 17L655 13L736 12L818 15L900 18L900 11L818 4L736 5L655 6L573 6L491 5L409 9L327 4L245 13L164 5L82 6L0 6Z" fill="#91e4b4"></path><path d="M0 30L82 32L164 35L245 31L327 29L409 33L491 24L573 29L655 23L736 26L818 34L900 26L900 16L818 13L736 10L655 11L573 15L491 10L409 19L327 13L245 17L164 15L82 10L0 16Z" fill="#6fcba7"></path><path d="M0 37L82 40L164 41L245 34L327 36L409 40L491 30L573 37L655 29L736 32L818 41L900 34L900 24L818 32L736 24L655 21L573 27L491 22L409 31L327 27L245 29L164 33L82 30L0 28Z" fill="#4eb29a"></path><path d="M0 51L82 51L164 51L245 51L327 51L409 51L491 51L573 51L655 51L736 51L818 51L900 51L900 32L818 39L736 30L655 27L573 35L491 28L409 38L327 34L245 32L164 39L82 38L0 35Z" fill="#2c998c"></path></svg>